<svg width="40" height="40" viewBox="0 0 40 40" fill="none" xmlns="http://www.w3.org/2000/svg">
<rect width="40" height="40" rx="20" fill="#F1F5F8"/>
<path d="M36.3969 10.4026C36.3969 10.6699 35.8491 10.9032 35.0305 11.0313C34.8288 11.0632 34.6424 11.1582 34.4981 11.3026C34.3537 11.447 34.2588 11.6335 34.227 11.8352C34.0986 12.6534 33.8652 13.2016 33.5979 13.2016C33.3306 13.2016 33.0976 12.6534 32.9691 11.8352C32.9373 11.6335 32.8424 11.447 32.6981 11.3026C32.5537 11.1582 32.3673 11.0632 32.1657 11.0313C31.3462 10.9032 30.7969 10.6699 30.7969 10.4026C30.7969 10.1353 31.3458 9.90029 32.1645 9.77302C32.3664 9.74127 32.5531 9.64631 32.6976 9.5018C32.8422 9.35729 32.9373 9.17067 32.9691 8.96875C33.0976 8.14932 33.3306 7.60156 33.5979 7.60156C33.8652 7.60156 34.0986 8.14932 34.227 8.96875C34.2587 9.17066 34.3537 9.35731 34.4982 9.50183C34.6427 9.64636 34.8294 9.74131 35.0313 9.77302C35.8495 9.90029 36.3969 10.1337 36.3969 10.4026Z" fill="#2A8BFB"/>
<path d="M7.19688 32.2008C7.19688 32.4108 6.7665 32.5942 6.12328 32.6948C5.96481 32.7199 5.81836 32.7945 5.70494 32.908C5.59153 33.0214 5.51697 33.1679 5.49198 33.3264C5.39105 33.9693 5.20768 34.4 4.99766 34.4C4.78764 34.4 4.60458 33.9693 4.50365 33.3264C4.47866 33.1679 4.4041 33.0214 4.29068 32.908C4.17726 32.7945 4.03081 32.7199 3.87234 32.6948C3.2285 32.5942 2.79688 32.4108 2.79688 32.2008C2.79688 31.9908 3.22819 31.8061 3.8714 31.7061C4.03007 31.6812 4.17674 31.6066 4.29034 31.493C4.40394 31.3795 4.47862 31.2329 4.50365 31.0742C4.60458 30.4304 4.78764 30 4.99766 30C5.20768 30 5.39105 30.4304 5.49198 31.0742C5.5169 31.2329 5.5915 31.3795 5.70506 31.4931C5.81861 31.6066 5.96526 31.6812 6.12391 31.7061C6.76681 31.8061 7.19688 31.9895 7.19688 32.2008Z" fill="#2A8BFB"/>
<path d="M2.80469 18.2949C2.80469 17.6898 3.31176 17.1992 3.93727 17.1992H35.2721C35.8976 17.1992 36.4047 17.6898 36.4047 18.2949V24.5036C36.4047 25.1087 35.8976 25.5992 35.2721 25.5992H3.93727C3.31176 25.5992 2.80469 25.1087 2.80469 24.5036V18.2949Z" fill="white"/>
<path fill-rule="evenodd" clip-rule="evenodd" d="M4.3148 18.6601V24.1383H34.8946V18.6601H4.3148ZM3.93727 17.1992C3.31176 17.1992 2.80469 17.6898 2.80469 18.2949V24.5036C2.80469 25.1087 3.31176 25.5992 3.93727 25.5992H35.2721C35.8976 25.5992 36.4047 25.1087 36.4047 24.5036V18.2949C36.4047 17.6898 35.8976 17.1992 35.2721 17.1992H3.93727Z" fill="#002E61"/>
<path d="M10.0331 10.6354C12.7549 8.02534 16.3084 6.63208 20.0315 6.70839C22.0368 6.74927 23.9549 7.21214 25.7381 8.07971C29.4417 9.88165 32.0817 13.2393 33.0721 17.1601C33.1709 17.5535 33.2508 17.9543 33.3146 18.3593C33.3804 18.7557 33.4267 19.1557 33.4571 19.5575C33.4944 20.0674 33.5157 20.5815 33.4974 21.1025C33.441 22.7838 33.0758 24.3207 32.4478 25.6908C32.26 26.1008 32.0533 26.4944 31.8187 26.8732C31.7216 27.0272 31.6183 27.1746 31.5145 27.323C31.3403 27.5704 31.1618 27.817 30.9672 28.0486C30.8351 28.2047 30.6874 28.3472 30.5459 28.4962C30.1499 28.9108 29.7299 29.3078 29.26 29.6651C29.2464 29.6739 29.236 29.6832 29.2247 29.6919C26.6966 31.5914 23.1188 32.5942 19.1532 32.5091C16.4165 32.4541 13.8653 31.8857 11.7756 30.8689C10.8372 30.4123 10.0084 29.8674 9.27528 29.2488C8.82579 28.8693 8.41445 28.4644 8.04596 28.0291C7.91649 27.8768 7.79646 27.7219 7.67829 27.5656C7.49559 27.3207 7.32421 27.0742 7.1679 26.8183C7.07432 26.6668 6.98779 26.5104 6.90271 26.3559C6.69209 25.9688 6.50216 25.5656 6.34196 25.1495C5.80645 23.7565 5.55361 22.2034 5.60815 20.521C5.626 20.001 5.67741 19.489 5.74723 18.9824C5.80613 18.5823 5.87307 18.1827 5.96367 17.7945C6.05562 17.3915 6.16979 16.9981 6.29578 16.6069C7.01855 14.3591 8.28506 12.3117 10.0331 10.6354Z" fill="white"/>
<path fill-rule="evenodd" clip-rule="evenodd" d="M20.0315 6.70839C16.3084 6.63208 12.7549 8.02534 10.0331 10.6354C8.28506 12.3117 7.01855 14.3591 6.29578 16.6069C6.16979 16.9981 6.05562 17.3915 5.96367 17.7945C5.87307 18.1827 5.80613 18.5823 5.74723 18.9824C5.67741 19.489 5.626 20.001 5.60815 20.521C5.55361 22.2034 5.80645 23.7565 6.34196 25.1495C6.50216 25.5656 6.69209 25.9688 6.90271 26.3559C6.98779 26.5104 7.07432 26.6668 7.1679 26.8183C7.32421 27.0742 7.49559 27.3207 7.67829 27.5656C7.79646 27.7219 7.91649 27.8768 8.04596 28.0291C8.41445 28.4644 8.82579 28.8693 9.27528 29.2488C10.0084 29.8674 10.8372 30.4123 11.7756 30.8689C13.8653 31.8857 16.4165 32.4541 19.1532 32.5091C23.1188 32.5942 26.6966 31.5914 29.2247 29.6919C29.236 29.6832 29.2464 29.6739 29.26 29.6651C29.7299 29.3078 30.1499 28.9108 30.5459 28.4962C30.5888 28.451 30.6323 28.4064 30.6758 28.3618C30.7756 28.2595 30.8752 28.1573 30.9672 28.0486C31.1618 27.817 31.3403 27.5704 31.5145 27.323L31.5201 27.3149C31.622 27.1693 31.7233 27.0244 31.8187 26.8732C32.0533 26.4944 32.26 26.1008 32.4478 25.6908C33.0758 24.3207 33.441 22.7838 33.4974 21.1025C33.5157 20.5815 33.4944 20.0674 33.4571 19.5575C33.4267 19.1557 33.3804 18.7557 33.3146 18.3593C33.2508 17.9543 33.1709 17.5535 33.0721 17.1601C32.0817 13.2393 29.4417 9.88165 25.7381 8.07971C23.9549 7.21214 22.0368 6.74927 20.0315 6.70839ZM31.5205 17.5507C30.6415 14.0722 28.3028 11.1069 25.0381 9.51846C23.4642 8.75269 21.7739 8.34424 19.9989 8.30806L19.9987 8.30805C16.7045 8.24054 13.5597 9.4703 11.1405 11.7902C9.58544 13.2815 8.46104 15.0998 7.81898 17.0967L7.81875 17.0974C7.70194 17.4601 7.60205 17.8065 7.52358 18.1504L7.5227 18.1543L7.5218 18.1581C7.44643 18.481 7.38729 18.8282 7.33124 19.2081C7.26733 19.6732 7.22273 20.1258 7.20726 20.5744C7.1592 22.0623 7.38354 23.3997 7.83513 24.5746C7.96721 24.9177 8.12615 25.2564 8.3063 25.5878C8.3921 25.7436 8.46006 25.8656 8.52917 25.9775L8.53121 25.9808L8.53325 25.9842C8.65625 26.1855 8.79678 26.3889 8.95772 26.6048C9.06809 26.7507 9.16583 26.8761 9.265 26.9927L9.26718 26.9953C9.57225 27.3557 9.91886 27.6982 10.3072 28.026M31.5205 17.5507C31.6064 17.8926 31.677 18.246 31.7342 18.6085L31.7352 18.6148L31.7362 18.621C31.7933 18.9652 31.8343 19.317 31.8614 19.6756C31.8964 20.1532 31.9139 20.6044 31.8984 21.0462L31.8983 21.0488C31.8487 22.5285 31.5288 23.8559 30.9933 25.0242L30.9931 25.0246C30.8301 25.3804 30.6554 25.7121 30.4622 26.0248C30.3901 26.1386 30.3106 26.2527 30.2048 26.4039C30.0367 26.6426 29.8916 26.8413 29.7443 27.0169C29.6886 27.0825 29.6451 27.1269 29.5751 27.1984C29.5281 27.2463 29.4693 27.3064 29.3869 27.3931C29.0355 27.761 28.6865 28.0887 28.3135 28.3747C28.2853 28.3951 28.2633 28.4123 28.2486 28.4239L28.2453 28.4265C26.0697 30.0529 22.8763 30.9887 19.1875 30.9095L19.1853 30.9094C16.6404 30.8583 14.3239 30.3294 12.4756 29.4302C11.6559 29.0314 10.9388 28.5589 10.3074 28.0261M28.2271 28.4411C28.2264 28.4417 28.2266 28.4415 28.2275 28.4408Z" fill="#002E61"/>
<path d="M9.39986 18.5881C9.35277 18.8307 9.30687 19.0739 9.27688 19.3205C9.24027 19.6333 9.21281 19.9498 9.2042 20.2696C9.17756 21.2866 9.30464 22.2401 9.57046 23.1205C9.64616 23.3738 9.73123 23.6229 9.8312 23.864C9.87197 23.9621 9.91916 24.0545 9.96343 24.1499C10.0351 24.3062 10.1136 24.4592 10.1958 24.609C10.2492 24.7052 10.2997 24.8029 10.3569 24.8958C10.5156 25.1559 10.6945 25.4046 10.8857 25.6461C11.6519 26.6165 12.6667 27.4262 13.92 28.036C14.9715 28.5476 16.1773 28.8987 17.4663 29.0833C18.0087 29.1607 18.5614 29.2109 19.1293 29.2268C19.6963 29.2415 20.2449 29.2188 20.7825 29.1724C22.9306 28.9938 24.8212 28.3432 26.3068 27.2441C26.7697 26.9017 27.1794 26.5166 27.5476 26.1025C27.7496 25.8724 27.9394 25.6326 28.1111 25.3819C28.1736 25.2909 28.2318 25.1985 28.2908 25.1043C28.3836 24.9586 28.4682 24.8088 28.5513 24.6576C28.6 24.565 28.6496 24.475 28.6956 24.3804C28.8102 24.145 28.9182 23.9035 29.0087 23.6528C29.3243 22.786 29.5 21.8386 29.5281 20.8247C29.5367 20.5048 29.5236 20.1876 29.504 19.873C29.4872 19.6249 29.4613 19.379 29.4275 19.1343C29.3915 18.885 29.348 18.6392 29.2941 18.395C28.6404 15.3925 26.6492 12.7845 23.8108 11.4036C22.5079 10.7696 21.1061 10.4277 19.6465 10.3861C16.9337 10.3119 14.3523 11.2986 12.381 13.1659C11.0113 14.4626 10.0607 16.0812 9.5763 17.8555C9.50598 18.0993 9.4472 18.342 9.39986 18.5881ZM13.3886 14.2355C15.0734 12.6385 17.2816 11.795 19.6019 11.8581C20.8516 11.8919 22.0488 12.1855 23.1636 12.7279C25.4791 13.8545 27.1386 15.9353 27.7726 18.3562C27.8358 18.5991 27.8873 18.8465 27.9289 19.0964C27.9715 19.341 28.0021 19.5878 28.0228 19.8355C28.0482 20.15 28.0637 20.4669 28.0546 20.788C28.0267 21.824 27.8057 22.7697 27.4203 23.6115C27.3051 23.8634 27.1779 24.1051 27.0334 24.3376C26.9735 24.4321 26.9098 24.5225 26.8458 24.6135C26.7383 24.7653 26.6281 24.9165 26.5079 25.0584C26.4262 25.154 26.3348 25.2412 26.2473 25.3324C26.0023 25.5863 25.7423 25.8292 25.4511 26.0474C25.4426 26.0527 25.4362 26.0584 25.4292 26.0638C23.862 27.2236 21.637 27.8263 19.1656 27.7568C17.4601 27.7111 15.868 27.3498 14.5615 26.7141C13.9748 26.4286 13.456 26.0892 12.9966 25.7047C12.7148 25.4689 12.4568 25.2176 12.2253 24.9477C12.144 24.8532 12.0685 24.7573 11.9942 24.6604C11.8793 24.5087 11.7715 24.356 11.673 24.1977C11.614 24.1039 11.5594 24.0071 11.5057 23.9115C11.3728 23.672 11.2527 23.4227 11.1511 23.1655C10.8115 22.3046 10.6472 21.3462 10.674 20.3096C10.6829 19.9891 10.7127 19.6737 10.754 19.3618C10.789 19.1155 10.829 18.8694 10.8838 18.6305C10.9393 18.3825 11.0088 18.1406 11.0856 17.9C11.5263 16.5177 12.3066 15.2612 13.3886 14.2355Z" fill="#002E61"/>
<path d="M13.3891 14.2344C15.0738 12.6374 17.2821 11.794 19.6023 11.8571C20.852 11.8909 22.0492 12.1844 23.1641 12.7268C25.4796 13.8534 27.1391 15.9343 27.7731 18.3552C27.8363 18.5981 27.8878 18.8455 27.9293 19.0954C27.972 19.3399 28.0026 19.5867 28.0232 19.8345C28.0487 20.149 28.0642 20.4659 28.055 20.7869C28.0271 21.823 27.8062 22.7687 27.4207 23.6105C27.3055 23.8624 27.1784 24.1041 27.0338 24.3366C26.974 24.431 26.9102 24.5215 26.8462 24.6125C26.7387 24.7642 26.6286 24.9154 26.5083 25.0574C26.4267 25.153 26.3353 25.2401 26.2477 25.3314C26.0028 25.5853 25.7427 25.8281 25.4515 26.0463C25.4431 26.0517 25.4366 26.0574 25.4296 26.0627C23.8625 27.2226 21.6375 27.8253 19.1661 27.7557C17.4606 27.7101 15.8685 27.3487 14.562 26.7131C13.9753 26.4276 13.4565 26.0882 12.997 25.7037C12.7153 25.4679 12.4573 25.2165 12.2258 24.9466C12.1444 24.8522 12.069 24.7562 11.9947 24.6594C11.8798 24.5077 11.7719 24.355 11.6734 24.1966C11.6145 24.1028 11.5599 24.006 11.5062 23.9104C11.3733 23.6709 11.2532 23.4216 11.1516 23.1644C10.8119 22.3036 10.6477 21.3452 10.6744 20.3085C10.6833 19.9881 10.7131 19.6727 10.7545 19.3607C10.7895 19.1144 10.8294 18.8684 10.8842 18.6295C10.9398 18.3815 11.0092 18.1395 11.0861 17.899C11.5267 16.5166 12.3071 15.2601 13.3891 14.2344Z" fill="#2A8BFB"/>
<path d="M12.5454 19.4075C12.4647 19.6667 12.3891 19.9349 12.3242 20.2215C12.2464 20.5604 12.4177 20.8983 12.7182 21.0445C12.7673 21.0683 12.8205 21.0884 12.8774 21.1007C13.2719 21.1902 13.6678 20.9433 13.7583 20.5469C13.8504 20.147 13.9636 19.7866 14.0864 19.4485C14.181 19.1895 14.2819 18.946 14.3901 18.7221C14.5172 18.4578 14.6514 18.218 14.7923 17.9962C15.9357 16.2038 17.4146 15.8056 17.5067 15.7817C17.9008 15.6904 18.1451 15.2965 18.0534 14.9015C17.9641 14.5063 17.5705 14.2584 17.1741 14.3501C17.05 14.3782 14.6208 14.9781 13.1289 17.9497C13.0164 18.178 12.9075 18.4198 12.8053 18.6766C12.7131 18.9097 12.6253 19.1516 12.5454 19.4075Z" fill="white"/>
</svg>
