<svg width="20" height="20" viewBox="0 0 20 20" fill="none" xmlns="http://www.w3.org/2000/svg">
<path opacity="0.4" d="M8.7474 10H4.16406" stroke="white" stroke-width="2" stroke-linecap="round" stroke-linejoin="round"/>
<path d="M2.14287 3.94137C1.99164 3.48574 1.91603 3.25793 1.97107 3.1176C2.01886 2.99573 2.12116 2.90341 2.24727 2.86832C2.39249 2.82791 2.61138 2.92641 3.04917 3.12342L16.9802 9.39237C17.4089 9.58524 17.6232 9.68168 17.6894 9.81564C17.7469 9.93203 17.7469 10.0686 17.6894 10.185C17.6232 10.319 17.4089 10.4154 16.9802 10.6083L3.05403 16.8751C2.61491 17.0727 2.39536 17.1715 2.25 17.1309C2.12376 17.0957 2.02146 17.0031 1.97383 16.881C1.91898 16.7404 1.99541 16.5121 2.14827 16.0555L4.09403 10.2432C4.12021 10.165 4.1333 10.1259 4.13853 10.0859C4.14317 10.0504 4.14321 10.0145 4.13866 9.97899C4.13354 9.93897 4.12055 9.89984 4.09458 9.82159L2.14287 3.94137Z" stroke="white" stroke-width="2" stroke-linecap="round" stroke-linejoin="round"/>
</svg>
